<mxfile host="app.diagrams.net" modified="2023-09-18T17:50:25.717Z" agent="Mozilla/5.0 (Windows NT 10.0; Win64; x64) AppleWebKit/537.36 (KHTML, like Gecko) Chrome/116.0.0.0 Safari/537.36" etag="h7IgJaDi6WRiUnOscfuZ" version="21.6.9" type="github">
  <diagram name="Page-1" id="yTDCoies-UCROyo4oupm">
    <mxGraphModel dx="906" dy="625" grid="1" gridSize="10" guides="1" tooltips="1" connect="1" arrows="1" fold="1" page="1" pageScale="1" pageWidth="827" pageHeight="1169" math="0" shadow="0">
      <root>
        <mxCell id="0" />
        <mxCell id="1" parent="0" />
        <mxCell id="aV1qoiDysXKP7-a_qVDX-1" value="Checking out the code from Subversion Repository" style="rounded=1;whiteSpace=wrap;html=1;" vertex="1" parent="1">
          <mxGeometry x="360" y="100" width="120" height="60" as="geometry" />
        </mxCell>
        <mxCell id="aV1qoiDysXKP7-a_qVDX-3" value="" style="endArrow=classic;html=1;rounded=0;" edge="1" parent="1" source="aV1qoiDysXKP7-a_qVDX-5">
          <mxGeometry width="50" height="50" relative="1" as="geometry">
            <mxPoint x="418" y="30" as="sourcePoint" />
            <mxPoint x="419" y="100" as="targetPoint" />
          </mxGeometry>
        </mxCell>
        <mxCell id="aV1qoiDysXKP7-a_qVDX-5" value="" style="ellipse;whiteSpace=wrap;html=1;aspect=fixed;fillColor=#000000;" vertex="1" parent="1">
          <mxGeometry x="414" y="30" width="10" height="10" as="geometry" />
        </mxCell>
        <mxCell id="aV1qoiDysXKP7-a_qVDX-9" value="" style="endArrow=classic;html=1;rounded=0;" edge="1" parent="1">
          <mxGeometry width="50" height="50" relative="1" as="geometry">
            <mxPoint x="418.85" y="160" as="sourcePoint" />
            <mxPoint x="418.85" y="210" as="targetPoint" />
          </mxGeometry>
        </mxCell>
        <mxCell id="aV1qoiDysXKP7-a_qVDX-34" style="edgeStyle=orthogonalEdgeStyle;rounded=0;orthogonalLoop=1;jettySize=auto;html=1;" edge="1" parent="1">
          <mxGeometry relative="1" as="geometry">
            <mxPoint x="420.07317073170736" y="200" as="targetPoint" />
            <mxPoint x="420" y="200" as="sourcePoint" />
          </mxGeometry>
        </mxCell>
        <mxCell id="aV1qoiDysXKP7-a_qVDX-10" value="Need Modifications&lt;br&gt;?" style="rhombus;whiteSpace=wrap;html=1;align=center;" vertex="1" parent="1">
          <mxGeometry x="344.5" y="190" width="151" height="70" as="geometry" />
        </mxCell>
        <mxCell id="aV1qoiDysXKP7-a_qVDX-11" value="yes" style="endArrow=classic;html=1;rounded=0;exitX=0.5;exitY=1;exitDx=0;exitDy=0;" edge="1" parent="1" source="aV1qoiDysXKP7-a_qVDX-10">
          <mxGeometry width="50" height="50" relative="1" as="geometry">
            <mxPoint x="418.8" y="260" as="sourcePoint" />
            <mxPoint x="418.8" y="310" as="targetPoint" />
          </mxGeometry>
        </mxCell>
        <mxCell id="aV1qoiDysXKP7-a_qVDX-12" value="Check out code from Subversion Repository(Local Copy)" style="rounded=1;whiteSpace=wrap;html=1;" vertex="1" parent="1">
          <mxGeometry x="359" y="310" width="120" height="60" as="geometry" />
        </mxCell>
        <mxCell id="aV1qoiDysXKP7-a_qVDX-13" value="" style="endArrow=classic;html=1;rounded=0;" edge="1" parent="1">
          <mxGeometry width="50" height="50" relative="1" as="geometry">
            <mxPoint x="420" y="370" as="sourcePoint" />
            <mxPoint x="420" y="420" as="targetPoint" />
          </mxGeometry>
        </mxCell>
        <mxCell id="aV1qoiDysXKP7-a_qVDX-14" value="Make modifications to Local Copy" style="rounded=1;whiteSpace=wrap;html=1;" vertex="1" parent="1">
          <mxGeometry x="360" y="420" width="120" height="50" as="geometry" />
        </mxCell>
        <mxCell id="aV1qoiDysXKP7-a_qVDX-15" value="[Testing]" style="endArrow=classic;html=1;rounded=0;exitX=0.5;exitY=1;exitDx=0;exitDy=0;" edge="1" parent="1" source="aV1qoiDysXKP7-a_qVDX-14">
          <mxGeometry width="50" height="50" relative="1" as="geometry">
            <mxPoint x="412.31999999999994" y="470" as="sourcePoint" />
            <mxPoint x="420" y="520" as="targetPoint" />
          </mxGeometry>
        </mxCell>
        <mxCell id="aV1qoiDysXKP7-a_qVDX-16" value="" style="shape=link;html=1;rounded=0;width=1.3725490196078436;" edge="1" parent="1">
          <mxGeometry width="100" relative="1" as="geometry">
            <mxPoint x="310" y="520" as="sourcePoint" />
            <mxPoint x="540" y="520" as="targetPoint" />
            <Array as="points" />
          </mxGeometry>
        </mxCell>
        <mxCell id="aV1qoiDysXKP7-a_qVDX-17" value="Testing in Firefox" style="rounded=1;whiteSpace=wrap;html=1;" vertex="1" parent="1">
          <mxGeometry x="310" y="555" width="80" height="30" as="geometry" />
        </mxCell>
        <mxCell id="aV1qoiDysXKP7-a_qVDX-18" value="Testing in Internet Explorer" style="rounded=1;whiteSpace=wrap;html=1;" vertex="1" parent="1">
          <mxGeometry x="440" y="555" width="80" height="50" as="geometry" />
        </mxCell>
        <mxCell id="aV1qoiDysXKP7-a_qVDX-19" value="" style="endArrow=classic;html=1;rounded=0;entryX=0.879;entryY=0.008;entryDx=0;entryDy=0;entryPerimeter=0;" edge="1" parent="1">
          <mxGeometry width="50" height="50" relative="1" as="geometry">
            <mxPoint x="359" y="519.76" as="sourcePoint" />
            <mxPoint x="359.31999999999994" y="554.9999999999999" as="targetPoint" />
            <Array as="points">
              <mxPoint x="359" y="539.76" />
              <mxPoint x="359" y="549.76" />
            </Array>
          </mxGeometry>
        </mxCell>
        <mxCell id="aV1qoiDysXKP7-a_qVDX-20" value="" style="endArrow=classic;html=1;rounded=0;entryX=0.879;entryY=0.008;entryDx=0;entryDy=0;entryPerimeter=0;" edge="1" parent="1">
          <mxGeometry width="50" height="50" relative="1" as="geometry">
            <mxPoint x="475.75" y="519.76" as="sourcePoint" />
            <mxPoint x="476.06999999999994" y="554.9999999999999" as="targetPoint" />
            <Array as="points">
              <mxPoint x="475.75" y="539.76" />
              <mxPoint x="475.75" y="549.76" />
            </Array>
          </mxGeometry>
        </mxCell>
        <mxCell id="aV1qoiDysXKP7-a_qVDX-21" value="" style="endArrow=classic;html=1;rounded=0;exitX=0.437;exitY=1.114;exitDx=0;exitDy=0;exitPerimeter=0;entryX=0.5;entryY=0;entryDx=0;entryDy=0;" edge="1" parent="1">
          <mxGeometry width="50" height="50" relative="1" as="geometry">
            <mxPoint x="354.80000000000007" y="585" as="sourcePoint" />
            <mxPoint x="355" y="650" as="targetPoint" />
          </mxGeometry>
        </mxCell>
        <mxCell id="aV1qoiDysXKP7-a_qVDX-22" value="" style="endArrow=classic;html=1;rounded=0;exitX=0.437;exitY=1.114;exitDx=0;exitDy=0;exitPerimeter=0;entryX=0.5;entryY=0;entryDx=0;entryDy=0;" edge="1" parent="1">
          <mxGeometry width="50" height="50" relative="1" as="geometry">
            <mxPoint x="475.75000000000006" y="605" as="sourcePoint" />
            <mxPoint x="475" y="650" as="targetPoint" />
          </mxGeometry>
        </mxCell>
        <mxCell id="aV1qoiDysXKP7-a_qVDX-33" value="" style="shape=link;html=1;rounded=0;width=1.3725490196078436;" edge="1" parent="1">
          <mxGeometry width="100" relative="1" as="geometry">
            <mxPoint x="310" y="650" as="sourcePoint" />
            <mxPoint x="540" y="650" as="targetPoint" />
            <Array as="points" />
          </mxGeometry>
        </mxCell>
        <mxCell id="aV1qoiDysXKP7-a_qVDX-35" value="" style="endArrow=classic;html=1;rounded=0;" edge="1" parent="1">
          <mxGeometry width="50" height="50" relative="1" as="geometry">
            <mxPoint x="419.71" y="650" as="sourcePoint" />
            <mxPoint x="419.71" y="720" as="targetPoint" />
          </mxGeometry>
        </mxCell>
        <mxCell id="aV1qoiDysXKP7-a_qVDX-36" value="Internet Explorer Test Passed?" style="rhombus;whiteSpace=wrap;html=1;" vertex="1" parent="1">
          <mxGeometry x="355" y="850" width="130" height="100" as="geometry" />
        </mxCell>
        <mxCell id="aV1qoiDysXKP7-a_qVDX-41" value="" style="endArrow=classic;html=1;rounded=0;exitX=0.5;exitY=1;exitDx=0;exitDy=0;" edge="1" parent="1">
          <mxGeometry width="50" height="50" relative="1" as="geometry">
            <mxPoint x="474.83" y="670" as="sourcePoint" />
            <mxPoint x="474.8319050758075" y="669.8879367172051" as="targetPoint" />
            <Array as="points" />
          </mxGeometry>
        </mxCell>
        <mxCell id="aV1qoiDysXKP7-a_qVDX-43" value="Firefox Test Passed?" style="rhombus;whiteSpace=wrap;html=1;" vertex="1" parent="1">
          <mxGeometry x="365" y="720" width="110" height="70" as="geometry" />
        </mxCell>
        <mxCell id="aV1qoiDysXKP7-a_qVDX-44" value="Fail" style="endArrow=classic;html=1;rounded=0;exitX=1;exitY=0.5;exitDx=0;exitDy=0;entryX=1;entryY=0.5;entryDx=0;entryDy=0;" edge="1" parent="1" source="aV1qoiDysXKP7-a_qVDX-43" target="aV1qoiDysXKP7-a_qVDX-14">
          <mxGeometry width="50" height="50" relative="1" as="geometry">
            <mxPoint x="340" y="670" as="sourcePoint" />
            <mxPoint x="460" y="550" as="targetPoint" />
            <Array as="points">
              <mxPoint x="630" y="755" />
              <mxPoint x="630" y="445" />
            </Array>
          </mxGeometry>
        </mxCell>
        <mxCell id="aV1qoiDysXKP7-a_qVDX-45" value="Pass" style="endArrow=classic;html=1;rounded=0;exitX=0.5;exitY=1;exitDx=0;exitDy=0;entryX=0.5;entryY=0;entryDx=0;entryDy=0;" edge="1" parent="1" source="aV1qoiDysXKP7-a_qVDX-43" target="aV1qoiDysXKP7-a_qVDX-36">
          <mxGeometry width="50" height="50" relative="1" as="geometry">
            <mxPoint x="340" y="740" as="sourcePoint" />
            <mxPoint x="390" y="690" as="targetPoint" />
          </mxGeometry>
        </mxCell>
        <mxCell id="aV1qoiDysXKP7-a_qVDX-46" value="Fail" style="endArrow=classic;html=1;rounded=0;exitX=0;exitY=0.5;exitDx=0;exitDy=0;entryX=0;entryY=0.5;entryDx=0;entryDy=0;" edge="1" parent="1" source="aV1qoiDysXKP7-a_qVDX-36" target="aV1qoiDysXKP7-a_qVDX-12">
          <mxGeometry width="50" height="50" relative="1" as="geometry">
            <mxPoint x="210" y="570" as="sourcePoint" />
            <mxPoint x="260" y="520" as="targetPoint" />
            <Array as="points">
              <mxPoint x="160" y="900" />
              <mxPoint x="160" y="340" />
            </Array>
          </mxGeometry>
        </mxCell>
        <mxCell id="aV1qoiDysXKP7-a_qVDX-47" value="Pass" style="endArrow=classic;html=1;rounded=0;exitX=0.5;exitY=1;exitDx=0;exitDy=0;" edge="1" parent="1" source="aV1qoiDysXKP7-a_qVDX-36">
          <mxGeometry width="50" height="50" relative="1" as="geometry">
            <mxPoint x="210" y="850" as="sourcePoint" />
            <mxPoint x="420" y="1020" as="targetPoint" />
          </mxGeometry>
        </mxCell>
        <mxCell id="aV1qoiDysXKP7-a_qVDX-48" value="" style="rhombus;whiteSpace=wrap;html=1;" vertex="1" parent="1">
          <mxGeometry x="380" y="1020" width="80" height="60" as="geometry" />
        </mxCell>
      </root>
    </mxGraphModel>
  </diagram>
</mxfile>
